<svg width="487" height="96" viewBox="0 0 487 96" fill="none" xmlns="http://www.w3.org/2000/svg">
    <path fill-rule="evenodd" clip-rule="evenodd" d="M115.46 34.6947C115.46 24.3397 126.196 19.1617 136.323 19.1617C147.211 19.1617 155.739 24.1107 157.947 35.6087H148.581C146.982 28.9847 141.196 27.0807 135.79 27.0807C131.526 27.0807 125.206 28.9847 125.206 34.3907C125.206 38.6537 128.709 40.7857 133.43 41.6997L140.206 42.9947C149.876 44.8977 159.089 48.4007 159.089 59.5167C159.089 70.6337 148.049 76.3447 137.16 76.3447C124.064 76.3447 115.079 69.1877 113.937 57.0807H123.455C125.13 64.6177 130.003 68.4257 137.617 68.4257C144.165 68.4257 149.419 65.4557 149.419 60.1257C149.419 54.4917 143.328 52.5877 138.074 51.5987L131.374 50.3037C122.693 48.5527 115.46 44.0607 115.46 34.6947" fill="black"/>
    <path fill-rule="evenodd" clip-rule="evenodd" d="M196.021 54.872C196.021 46.268 191.681 40.862 185.666 40.862C179.726 40.862 175.082 45.431 175.082 54.872C175.082 64.314 179.726 68.959 185.666 68.959C191.681 68.959 196.021 63.553 196.021 54.872V54.872ZM175.462 39.872C177.899 35.837 182.163 33.476 187.645 33.476C197.315 33.476 205.462 41.776 205.462 54.872C205.462 68.045 197.315 76.345 187.645 76.345C182.163 76.345 177.899 73.984 175.462 69.948V75.354H166.402V20.152H175.462V39.872Z" fill="black"/>
    <path fill-rule="evenodd" clip-rule="evenodd" d="M241.097 50.8368C240.869 44.4408 235.996 40.5578 230.666 40.5578C226.403 40.5578 220.539 43.0698 219.778 50.8368H241.097ZM230.895 68.8068C235.616 68.8068 239.346 66.9018 240.946 63.0958H249.854C247.951 69.6438 241.859 76.3448 231.276 76.3448C218.103 76.3448 210.565 66.2938 210.565 54.5678C210.565 42.2328 219.017 33.4768 230.666 33.4768C243.23 33.4768 251.072 43.6798 250.311 57.4608H219.778C220.387 65.0748 225.717 68.8068 230.895 68.8068V68.8068Z" fill="black"/>
    <path fill-rule="evenodd" clip-rule="evenodd" d="M275.82 43.3749C270.11 43.3749 266.836 45.6589 266.836 53.8829V75.3539H257.775V34.3909H266.683V41.6999C268.891 37.1309 272.851 34.3909 277.8 34.3139C278.485 34.3139 279.475 34.3909 280.161 34.4669V43.6039C278.637 43.4509 277.191 43.3749 275.82 43.3749" fill="black"/>
    <path fill-rule="evenodd" clip-rule="evenodd" d="M309.627 76.3446C293.485 76.3446 284.12 64.8466 284.12 47.5626C284.12 30.2026 294.095 19.1616 310.084 19.1616C322.343 19.1616 331.099 26.1666 333.307 38.5016H324.018C322.343 31.0396 316.937 27.0806 309.779 27.0806C301.023 27.0806 294.095 34.2386 294.095 47.5626C294.095 60.9636 300.871 68.4256 309.703 68.4256C317.165 68.4256 322.495 64.5416 324.17 57.0046H333.459C331.175 69.3386 322.343 76.3446 309.627 76.3446" fill="black"/>
    <mask id="mask0" mask-type="alpha" maskUnits="userSpaceOnUse" x="0" y="-1" width="487" height="97">
        <path fill-rule="evenodd" clip-rule="evenodd" d="M0 95.5956H486.284V-0.000396729H0V95.5956Z" fill="white"/>
    </mask>
    <g mask="url(#mask0)">
        <path fill-rule="evenodd" clip-rule="evenodd" d="M341.154 75.3546H350.215V20.1516H341.154V75.3546Z" fill="black"/>
        <path fill-rule="evenodd" clip-rule="evenodd" d="M388.665 54.9481C388.665 45.5071 383.563 40.8621 377.853 40.8621C372.143 40.8621 367.041 45.5071 367.041 54.9481C367.041 64.3891 372.143 68.9591 377.853 68.9591C383.563 68.9591 388.665 64.3891 388.665 54.9481M377.853 76.3441C367.879 76.3441 357.676 69.7191 357.676 54.9481C357.676 40.1771 367.879 33.4761 377.853 33.4761C387.828 33.4761 398.03 40.1771 398.03 54.9481C398.03 69.7191 387.828 76.3441 377.853 76.3441" fill="black"/>
        <path fill-rule="evenodd" clip-rule="evenodd" d="M418.667 76.3446C408.921 76.3446 404.962 69.9486 404.962 60.2016V34.3906H414.022V57.9936C414.022 63.5526 414.784 68.9586 421.561 68.9586C428.338 68.9586 430.774 63.6286 430.774 56.2426V34.3906H439.835V75.3546H430.774V69.7196C428.413 73.9846 424.226 76.3446 418.667 76.3446" fill="black"/>
        <path fill-rule="evenodd" clip-rule="evenodd" d="M456.665 54.872C456.665 63.553 461.005 68.959 467.02 68.959C472.959 68.959 477.604 64.314 477.604 54.872C477.604 45.431 472.959 40.862 467.02 40.862C461.005 40.862 456.665 46.268 456.665 54.872V54.872ZM486.284 20.152V75.354H477.224V69.948C474.787 73.984 470.523 76.345 465.041 76.345C455.371 76.345 447.224 68.045 447.224 54.872C447.224 41.776 455.371 33.476 465.041 33.476C470.523 33.476 474.787 35.837 477.224 39.872V20.152H486.284Z" fill="black"/>
        <path fill-rule="evenodd" clip-rule="evenodd" d="M36.496 25.8246H44.216V18.1046H36.496V25.8246Z" fill="#03CE7E"/>
        <path fill-rule="evenodd" clip-rule="evenodd" d="M36.496 44.0296H44.216V36.3096H36.496V44.0296Z" fill="#03CE7E"/>
        <path fill-rule="evenodd" clip-rule="evenodd" d="M36.496 51.6576H44.216V43.9376H36.496V51.6576Z" fill="#03CE7E"/>
        <path fill-rule="evenodd" clip-rule="evenodd" d="M36.496 33.5236H44.216V25.8036H36.496V33.5236Z" fill="#03CE7E"/>
        <path fill-rule="evenodd" clip-rule="evenodd" d="M36.496 7.7196H44.216V-0.000396729H36.496V7.7196Z" fill="#03CE7E"/>
        <path fill-rule="evenodd" clip-rule="evenodd" d="M18.248 20.6006H25.968V12.8806H18.248V20.6006Z" fill="#03CE7E"/>
        <path fill-rule="evenodd" clip-rule="evenodd" d="M18.248 38.6336H25.968V30.9136H18.248V38.6336Z" fill="#03CE7E"/>
        <path fill-rule="evenodd" clip-rule="evenodd" d="M18.248 46.3626H25.968V38.6426H18.248V46.3626Z" fill="#03CE7E"/>
        <path fill-rule="evenodd" clip-rule="evenodd" d="M0 33.5236H7.72V25.8036H0V33.5236Z" fill="#03CE7E"/>
        <path fill-rule="evenodd" clip-rule="evenodd" d="M0 51.6576H7.72V43.9376H0V51.6576Z" fill="#03CE7E"/>
        <path fill-rule="evenodd" clip-rule="evenodd" d="M54.743 20.6006H62.463V12.8806H54.743V20.6006Z" fill="#03CE7E"/>
        <path fill-rule="evenodd" clip-rule="evenodd" d="M54.743 38.6336H62.463V30.9136H54.743V38.6336Z" fill="#03CE7E"/>
        <path fill-rule="evenodd" clip-rule="evenodd" d="M54.743 46.3626H62.463V38.6426H54.743V46.3626Z" fill="#03CE7E"/>
        <path fill-rule="evenodd" clip-rule="evenodd" d="M72.991 33.5236H80.711V25.8036H72.991V33.5236Z" fill="#03CE7E"/>
        <path fill-rule="evenodd" clip-rule="evenodd" d="M36.496 77.4916H44.216V69.7706H36.496V77.4916Z" fill="#03CE7E"/>
        <path fill-rule="evenodd" clip-rule="evenodd" d="M36.496 59.2856H44.216V51.5646H36.496V59.2856Z" fill="#03CE7E"/>
        <path fill-rule="evenodd" clip-rule="evenodd" d="M36.496 69.7916H44.216V62.0706H36.496V69.7916Z" fill="#03CE7E"/>
        <path fill-rule="evenodd" clip-rule="evenodd" d="M36.496 95.5956H44.216V87.8756H36.496V95.5956Z" fill="#03CE7E"/>
        <path fill-rule="evenodd" clip-rule="evenodd" d="M54.743 82.7146H62.463V74.9946H54.743V82.7146Z" fill="#03CE7E"/>
        <path fill-rule="evenodd" clip-rule="evenodd" d="M54.743 64.6816H62.463V56.9616H54.743V64.6816Z" fill="#03CE7E"/>
        <path fill-rule="evenodd" clip-rule="evenodd" d="M54.743 56.9526H62.463V49.2326H54.743V56.9526Z" fill="#03CE7E"/>
        <path fill-rule="evenodd" clip-rule="evenodd" d="M72.991 69.7916H80.711V62.0706H72.991V69.7916Z" fill="#03CE7E"/>
        <path fill-rule="evenodd" clip-rule="evenodd" d="M18.248 82.7146H25.968V74.9946H18.248V82.7146Z" fill="#03CE7E"/>
        <path fill-rule="evenodd" clip-rule="evenodd" d="M18.248 64.6816H25.968V56.9616H18.248V64.6816Z" fill="#03CE7E"/>
        <path fill-rule="evenodd" clip-rule="evenodd" d="M18.248 56.9526H25.968V49.2326H18.248V56.9526Z" fill="#03CE7E"/>
        <path fill-rule="evenodd" clip-rule="evenodd" d="M0 69.7916H7.72V62.0706H0V69.7916Z" fill="#03CE7E"/>
        <path fill-rule="evenodd" clip-rule="evenodd" d="M72.991 51.6576H80.711V43.9376H72.991V51.6576Z" fill="#03CE7E"/>
    </g>
</svg>
